<svg xmlns="http://www.w3.org/2000/svg" xmlns:xlink="http://www.w3.org/1999/xlink" viewBox="0 0 659.000000 151.000000"><g transform="translate(0.000000,151.000000) scale(0.100000,-0.100000)"><path d="M4189 1480 c-131 -69 -142 -245 -20 -327 73 -49 168 -39 233 24 46 45 62 89 56 158 -11 128 -155 205 -269 145z" fill="#26db8e"></path><path d="M2880 740 l0 -700 165 0 165 0 0 46 0 46 44 -39 c104 -92 290 -107 436 -36 113 55 219 192 255 330 19 74 19 233 0 307 -49 186 -192 332 -360 366 -114 24 -237 -1 -326 -65 l-49 -35 0 240 0 240 -165 0 -165 0 0 -700z m638 -6 c64 -32 101 -88 109 -166 10 -97 -33 -184 -111 -225 -41 -22 -151 -22 -192 0 -150 78 -151 317 -2 391 33 17 68 26 98 26 30 0 65 -9 98 -26z"></path><path d="M517 1060 c-49 -13 -106 -42 -146 -75 l-31 -27 0 41 0 41 -165 0 -165 0 0 -500 0 -500 165 0 165 0 0 291 c0 319 5 354 53 395 22 19 40 24 83 24 45 0 59 -5 86 -29 l33 -29 3 -326 3 -326 164 0 164 0 3 308 c3 271 5 311 21 339 22 42 64 63 122 63 57 0 80 -12 102 -53 16 -28 18 -69 21 -344 l3 -313 165 0 164 0 0 334 c0 183 -5 357 -10 386 -24 129 -97 227 -204 277 -54 25 -72 28 -161 27 -88 0 -108 -3 -161 -28 -34 -15 -77 -43 -95 -62 l-33 -34 -28 34 c-60 73 -212 113 -321 86z"></path><path d="M2085 1060 c-118 -26 -197 -72 -286 -168 -75 -80 -116 -164 -132 -273 -37 -257 106 -495 349 -579 79 -28 192 -36 282 -20 198 33 370 195 417 391 42 180 -6 364 -128 488 -111 113 -214 160 -367 166 -52 2 -113 0 -135 -5z m220 -340 c89 -55 119 -196 63 -292 -34 -56 -80 -87 -146 -95 -63 -7 -114 10 -163 54 -44 40 -62 86 -61 157 1 90 39 150 117 188 52 25 140 19 190 -12z"></path><path d="M6050 1060 c-129 -27 -246 -124 -276 -228 -21 -71 -15 -172 14 -228 24 -47 85 -105 141 -133 22 -12 91 -35 153 -51 129 -36 158 -51 158 -84 0 -35 -26 -50 -85 -50 -63 1 -117 31 -137 74 -7 17 -17 30 -21 30 -5 0 -71 -32 -148 -71 l-139 -71 17 -30 c74 -126 195 -192 378 -204 231 -16 425 78 469 227 46 154 -10 300 -142 372 -28 15 -103 41 -168 57 -65 17 -128 37 -141 45 -33 22 -31 63 4 76 44 16 94 2 133 -40 l36 -37 137 60 c75 34 137 64 137 67 0 3 -18 31 -40 61 -44 61 -118 116 -195 142 -59 20 -220 29 -285 16z"></path><path d="M4110 540 l0 -500 165 0 165 0 0 500 0 500 -165 0 -165 0 0 -500z"></path><path d="M4613 693 c3 -219 9 -365 16 -393 32 -119 105 -211 205 -256 51 -23 75 -28 146 -28 106 0 172 21 234 75 l46 41 0 -46 0 -46 165 0 165 0 0 500 0 500 -165 0 -165 0 0 -292 c0 -267 -2 -297 -20 -335 -25 -56 -70 -83 -138 -83 -64 0 -106 20 -132 63 -19 30 -20 52 -20 340 l0 307 -171 0 -171 0 5 -347z"></path></g></svg>